<svg xmlns="http://www.w3.org/2000/svg" viewBox="0 0 64 64" role="img" aria-label="Headphones">
  <rect width="64" height="64" rx="8" fill="#ffffff"/>
  <path d="M18 34v-6c0-7.7 6.3-14 14-14s14 6.3 14 14v2" fill="none" stroke="#111111" stroke-width="4" stroke-linecap="round"/>
  <rect x="12" y="30" width="12" height="22" rx="5" fill="#111111"/>
  <rect x="40" y="30" width="12" height="22" rx="5" fill="#111111"/>
  <path d="M50 46c5 2 8 6 8 10 0 3.5-2.7 6-6 6" fill="none" stroke="#111111" stroke-width="3" stroke-linecap="round"/>
  <circle cx="52" cy="58" r="2" fill="#111111"/>
  <path d="M45 13c1.6-.3 3.2.6 3.8 2.1M49 11c2.6-.4 5.1 1.1 6.2 3.4M52.5 8.5c3.4-.6 6.8 1.3 8.2 4.4" fill="none" stroke="#111111" stroke-width="1.6" stroke-linecap="round"/>
</svg>
